<svg xmlns="http://www.w3.org/2000/svg" xmlns:xlink="http://www.w3.org/1999/xlink" width="70" height="70"><defs><path id="a" d="M4 0h61c4 0 5 1 5 5v60c0 4-1 5-5 5H4c-3 0-4-1-4-5V5c0-4 1-5 4-5z"/><linearGradient id="c" x1="100%" x2="0%" y1="0%" y2="100%"><stop offset="0%" stop-color="#269396"/><stop offset="100%" stop-color="#218689"/></linearGradient></defs><g fill="none" fill-rule="evenodd"><mask id="b" fill="#fff"><use xlink:href="#a"/></mask><g mask="url(#b)"><path fill="url(#c)" d="M0 0H70V70H0z"/><path fill="#FFF" fill-opacity=".383" d="M4 1h61c2.667 0 4.333.667 5 2V0H0v3c.667-1.333 2-2 4-2z"/><path fill="#393939" d="M4 69c-2 0-4-1-4-4V36.142L15.257 25.04 24 21.5l8 7.09 5.5-5.542 11 1.452L51 36.142 58 39 34.75 69H4z" opacity=".324"/><path fill="#000" fill-opacity=".383" d="M4 69h61c2.667 0 4.333-1 5-3v4H0v-4c.667 2 2 3 4 3z"/><g fill="#000" opacity=".303" transform="translate(12 23)"><path fill-rule="nonzero" d="M2.459 25.115L1.423 25.115 1.423 24.472 4.256 24.472 4.256 25.115 3.219 25.115 3.219 27.946 2.459 27.946z"/><path fill-rule="nonzero" d="M4.653 24.472L5.723 24.472 6.531 26.861 6.541 26.861 7.306 24.472 8.376 24.472 8.376 27.946 7.664 27.946 7.664 25.484 7.655 25.484 6.807 27.946 6.221 27.946 5.374 25.509 5.364 25.509 5.364 27.946 4.653 27.946z"/><ellipse cx="43.175" cy="17.432" rx="2.825" ry="2.838"/><g fill-rule="nonzero"><path d="M21.874 12.444H6.326c.988 2.664 3.284 3.912 5.508 3.912 2.308 0 4.235-1.116 5.555-2.244l3.164 3.864c-2.926 2.58-6.138 3.492-8.802 3.492-6.257 0-10.944-4.98-10.944-10.92 0-5.892 4.651-10.5 10.575-10.5 6.007-.012 10.492 4.8 10.492 12.396zM6.362 8.292h9.671c-.416-2.04-2.224-3.78-4.77-3.78-2.474.012-4.485 1.584-4.9 3.78z"/><path d="M41.965 10.668c0 5.892-4.306 10.68-9.635 10.68-2.344 0-4.342-.792-5.877-2.376v10.644a.347.347 0 0 1-.345.348h-4.865V10.668c0-5.856 4.27-10.632 10.373-10.632 6.09 0 10.349 4.788 10.349 10.632zm-5.163 0c0-3.276-2.307-5.736-5.162-5.736s-5.163 2.568-5.163 5.736c0 3.24 2.308 5.856 5.163 5.856 2.855 0 5.162-2.532 5.162-5.856z"/></g></g><g fill="#FFF" transform="translate(12 21)"><path fill-rule="nonzero" d="M2.459 25.115L1.423 25.115 1.423 24.472 4.256 24.472 4.256 25.115 3.219 25.115 3.219 27.946 2.459 27.946z"/><path fill-rule="nonzero" d="M4.653 24.472L5.723 24.472 6.531 26.861 6.541 26.861 7.306 24.472 8.376 24.472 8.376 27.946 7.664 27.946 7.664 25.484 7.655 25.484 6.807 27.946 6.221 27.946 5.374 25.509 5.364 25.509 5.364 27.946 4.653 27.946z"/><ellipse cx="43.175" cy="17.432" rx="2.825" ry="2.838"/><g fill-rule="nonzero"><path d="M21.874 12.444H6.326c.988 2.664 3.284 3.912 5.508 3.912 2.308 0 4.235-1.116 5.555-2.244l3.164 3.864c-2.926 2.58-6.138 3.492-8.802 3.492-6.257 0-10.944-4.98-10.944-10.92 0-5.892 4.651-10.5 10.575-10.5 6.007-.012 10.492 4.8 10.492 12.396zM6.362 8.292h9.671c-.416-2.04-2.224-3.78-4.77-3.78-2.474.012-4.485 1.584-4.9 3.78z"/><path d="M41.965 10.668c0 5.892-4.306 10.68-9.635 10.68-2.344 0-4.342-.792-5.877-2.376v10.644a.347.347 0 0 1-.345.348h-4.865V10.668c0-5.856 4.27-10.632 10.373-10.632 6.09 0 10.349 4.788 10.349 10.632zm-5.163 0c0-3.276-2.307-5.736-5.162-5.736s-5.163 2.568-5.163 5.736c0 3.24 2.308 5.856 5.163 5.856 2.855 0 5.162-2.532 5.162-5.856z"/></g></g></g></g></svg>